<svg id="Layer_1" xmlns="http://www.w3.org/2000/svg" viewBox="0 0 1000 1000"><path d="M471.8 17.9h59.6c1.2.4 2.4 1 3.6 1.2 24 3.5 48.5 5.4 72.1 10.7 282.3 62.8 446.7 358.8 351.1 631.7-80.8 230.7-320.3 364.4-560 312.6-191-41.3-340.3-196.8-372.8-388.7-3-17.9-5-36-7.5-54v-59.6c.5-2.8 1.2-5.5 1.6-8.3 3.3-22.4 5.5-45.1 10.1-67.3 39.5-187.3 199-339.9 387.2-370.7 18.2-3 36.6-5.1 55-7.6zm-19.2 241.5v142.5c-80.7 1-160.6 2-240.6 3.1v193.4c80.4 1 160.3 2 241.5 3.1v141.9c129.7-81 257.6-161 386.6-241.6-129.2-81-257.2-161-387.5-242.4z" fill="#90be4d"/><path d="M452.6 259.4c130.3 81.4 258.3 161.4 387.6 242.2-129 80.6-257 160.6-386.6 241.6V601.3c-81.2-1-161.1-2-241.5-3.1V404.8c80-1 159.8-2 240.6-3.1-.1-46.8-.1-93.2-.1-142.3z"/></svg>