<svg id="Layer_1" xmlns="http://www.w3.org/2000/svg" viewBox="0 0 1024 1024"><path d="M1016.4 513.1c.6 275.8-224.4 502.2-499.9 502.7-279.1.5-505.1-223-505.8-500.2-.6-277.1 224-502.9 500.8-503.6 278.4-.6 504.3 223.4 504.9 501.1zM437.1 648.8c-34.6-36-67.7-70.6-100.9-105.2-30.2-31.5-31.2-31.5-61.1 1.1-.8.8-1.6 1.7-2.3 2.5-9.8 10.4-10.4 19.1.7 30.5 49.9 51 99.3 102.5 148.1 154.6 10.4 11.1 19.1 11 28.8 1.6 12.3-11.9 23.5-24.9 35.7-36.9 68.5-67.1 137.2-134.1 205.7-201.1 41.2-40.3 82.8-80.2 123.2-121.4 6.5-6.6 12.1-19.8 10.2-28-7.4-30.8-39-38.7-61.2-17.1-64.1 62.7-128.1 125.4-192.2 188-44.6 43.5-89.1 86.9-134.7 131.4z" fill="#90be4d"/></svg>