<svg id="Layer_1" xmlns="http://www.w3.org/2000/svg" viewBox="0 0 1000 1000"><path d="M10 426.2c2.5-9.9 3.9-20.4 7.8-29.7 16.7-40 47-63.7 90.1-67.9 45.4-4.4 80.6 14.3 105.1 52.9.9 1.4 1.7 2.8 2.6 4.3.1.1.3.2.8.5 185.7-77.9 371.7-155.8 557.9-233.9-3.1-17-2.7-33.6 2.5-49.7 14.4-44.4 45-70.3 91.2-77.7 1.1-.2 2.2-.6 3.3-.9h20c6.5 1.3 13.1 2.3 19.5 4.1C960 41.5 993 87.7 990.3 138.9c-2.7 49.7-40.6 92-90 100.3-11.4 1.9-11.3 1.9-14 13.2-40.5 170-80.9 340.1-121.4 510.1-.3 1.3-.5 2.6-.9 4.4 1.8.8 3.6 1.6 5.4 2.3 45.6 18.1 73.5 64.6 67.9 113.3-5.6 48.2-43.4 87.3-91.5 94.7-69.9 10.8-131.4-46.7-125.2-117.1.6-6.8 2.1-13.5 3.9-20.1 1-3.7.3-5.5-2.7-7.8-53.4-40.2-106.7-80.5-160-120.8-87-65.6-173.8-131.2-260.7-196.8-1.2-.9-2.4-1.7-3.9-2.8-2.4 2.1-4.6 4.3-7.1 6.3-33 26.8-69.9 34.1-109.6 19.1-40.1-15.1-63.1-45.2-69.6-87.7-.2-1.1-.6-2.2-.9-3.3v-20zM743.5 762c41.4-173.9 82.7-347.7 124.1-521.7-41.6-7-70.6-29.7-87.7-67.8C594.3 250.3 409.1 328 223.7 405.7c8.6 32 4 61.8-13.3 89.7C351.8 602.3 493 708.9 634.2 815.6c25.9-39.7 62.2-57.4 109.3-53.6z" fill="#fff"/></svg>