<svg id="Layer_1" xmlns="http://www.w3.org/2000/svg" viewBox="0 0 1224 620"><style>.st0{fill:#a1a2a3}</style><path class="st0" d="M1058 621H68c-1.4-.6-2.7-1.4-4.1-1.7-26-5.7-44.3-21.2-55.8-44.8C5 568.1 3.3 560.9 1 554V69c.4-1.6.9-3.1 1.3-4.7 6-27.2 21.9-46.4 47.3-57.4C55.5 4.4 61.9 2.9 68 1h990c5 1.7 10.2 3 14.9 5.1 32.7 14.9 51.8 39.3 52 76.3.2 32.6 0 65.3.1 97.9 0 6.7 0 6.7 6.9 6.7 18.5 0 37-.2 55.5.1 13.8.2 25.1 5.8 31.9 18 3.1 5.6 3.9 12.5 5.8 18.8v173c-.2.6-.4 1.2-.5 1.9-2.1 19.5-18 34.1-40.8 33.5-17.5-.5-35 .1-52.4-.2-5.1-.1-6.5 1.5-6.4 6.6.2 35.1.2 70.2 0 105.4-.2 36.6-29.9 65.4-56.1 73.3-3.8 1-7.3 2.4-10.9 3.6zM562.5 74.6h-478c-9.7 0-10.3.7-10.3 10.2v452.5c0 9.5.6 10.2 10.3 10.2h955.9c9.2 0 11.8-2.6 11.8-11.9v-449c0-1.2.1-2.3 0-3.5-.3-4.4-3.4-7.8-7.8-8.3-1.8-.2-3.7-.1-5.5-.1-158.7-.1-317.6-.1-476.4-.1z"/><path class="st0" d="M136.4 310.8v-174c0-6.6 0-6.6 6.5-6.6h233.9c7 0 7 0 7 6.8v347.9c0 6.8 0 6.8-7 6.8-78.1 0-156.3 0-234.4.1-4.9 0-6.2-1.4-6.1-6.2.2-58.2.1-116.5.1-174.8z"/></svg>