<svg id="Layer_1" xmlns="http://www.w3.org/2000/svg" viewBox="0 0 1000 1000"><path d="M982.6 502c.4 264.7-214.7 480.1-480 480.6-264.6.6-480-215-480.1-480.3C22.4 237.9 237 22.7 500.8 22.5c266.4-.1 481.4 213.9 481.8 479.5zM610.3 733.3c-4 1.3-6.6 2.1-9.2 3-16.2 5.7-32.8 8.6-50.1 6.6-19.8-2.2-28.8-11.5-29.4-31.2-.2-7.2-.4-14.7 1.3-21.6 9.7-39 19.4-78.1 30.2-116.8 8.5-30.7 17.5-61.2 16.2-93.5-1.2-29.9-15.7-51.3-42.6-63.9-21.2-9.9-43.8-11.2-66.6-8.6-31.3 3.6-60 15.9-89 27.2-2.1.8-4.9 2.6-5.4 4.5-2.7 9.5-4.7 19.3-7.3 30.1 3.3-.9 5-1.2 6.7-1.8 18.9-6.8 38.1-10.8 58.3-6.4 11.9 2.5 19.9 9.3 20.7 21.3.9 12.7 1.6 26.1-1.2 38.3-7.7 33.4-17 66.3-26.1 99.4-8.8 31.8-19.2 63.3-19.5 96.8-.3 33.7 17.8 59.9 49.4 72 22.4 8.6 46.1 10.8 68.8 5.5 28.3-6.5 55.6-17.5 83.2-26.7 1.7-.6 3.8-2.6 4.3-4.3 2.5-9.5 4.7-19.1 7.3-29.9zm-64.4-526.4c-4.1.3-8.5.5-12.9 1-26.6 3.1-51.5 24.1-58.9 49.4-7.7 26.6.9 52.8 23.3 70.7 30.8 24.6 77.1 21.3 103.5-7.9 18.7-20.7 23-44.9 11.8-70.1-12.4-28.3-35.8-41.7-66.8-43.1z" fill="#fff"/></svg>