<svg id="Layer_1" xmlns="http://www.w3.org/2000/svg" viewBox="0 0 800 1000"><path d="M417.1 65.7c7.1 2.1 14.3 3.9 21.3 6.4 53.2 18.7 83.6 75.6 69.4 129.5-14.9 56.6-68.3 90.4-126.9 80.2-52.8-9.1-92.2-61.5-87.6-116.3 4.1-48 40.6-88.5 88-97.7 2-.4 3.9-1.4 5.8-2.1h30zm-29.9 872.9c-4.7-1.4-9.4-2.8-14.1-4.1-51.4-14.3-86.2-65.5-79.5-117.1 7.1-54.5 52.1-96 105.3-97 54.8-1.1 101.4 37.1 110.6 90.6 9.9 57.9-27.8 113.2-85.4 125.3-2.4.5-4.6 1.4-7 2.2-10 .1-20 .1-29.9.1zm124-436.5c0 60.2-49.4 109.3-109.6 109.1-59.6-.1-108.6-49.3-108.6-109S342.2 393 401.5 393.1c60.6 0 109.7 48.9 109.7 109z" fill="#8b8b8b"/></svg>