<svg id="Layer_1" xmlns="http://www.w3.org/2000/svg" viewBox="0 0 1000 1000"><path d="M745.8 441.8c28.9 1.4 53.3 9.2 74.4 25.9 28.5 22.5 46.5 51.7 46.9 88.2 1 107.7 1.8 215.5-.1 323.1-1.1 63.4-55.1 113.9-118.6 114.1-165.5.6-331 .7-496.4 0-64.3-.3-117.9-54.2-118.3-118.3-.7-104.9-.7-209.9 0-314.8.4-58.5 48.1-110.6 106-116.1 14.5-1.4 16.6-6.9 16.5-19.5-.5-59.4-1.3-118.9.4-178.2C259.5 139 338.9 44.1 443.2 20.1c155.7-35.7 300.7 78.3 302.4 238.3.6 54.4.1 108.8.1 163.3.1 6 .1 12 .1 20.1zm-123.6-.4c.4-3.8 1-6.5 1-9.2 0-58.8.3-117.7-.3-176.5-.1-10.9-2.2-22.2-5.4-32.6-17.8-58.8-74.2-94.5-135.1-86.1-59.6 8.2-103.5 59.5-104.4 123.4-.8 54.9.3 109.9-.5 164.8-.2 14.6 5.1 17.3 18.2 17.2 69.9-.6 139.8-.2 209.8-.3 5.4.1 10.8-.4 16.7-.7zm.9 251.4c0-59.1-35.8-107.7-86.7-122.7-53.6-15.8-109.8 5.1-139.4 51.9-28.9 45.7-25.1 106.3 12.1 145 16.9 17.6 31.3 32.4 34.1 59.6 3 29.8 34.1 46.9 65.2 43.7 27.9-2.8 51.4-25.8 52.5-55.6.6-16.3 6.7-25.5 18.9-35.3 28.8-23.3 42.2-54.9 43.3-86.6z" fill="#9d9d9d"/></svg>