<svg id="Layer_1" xmlns="http://www.w3.org/2000/svg" viewBox="0 0 1000 1000"><path d="M110.3 222.5c224.6 225.3 449.4 450.9 674.1 676.3-119.4 108.9-385.7 129.2-572.3-24C-19 685-11.1 384.2 110.3 222.5zM508.5 96c5.9-20.9 11.1-39 16.1-56.7 161.3 4.9 408.2 169 460.3 446.6-45.6 32.1-58 27.3-72.5-22.5-55.9-192.2-182.2-312-375.7-361.5-7.8-2-15.7-3.3-28.2-5.9zm199.8 471.5c-24-146.2-107.9-231.9-253.5-259.6 1.6-9.8 2.8-18.9 4.8-27.9 2.1-9.5 4.9-18.7 8.3-31.5 67.7 1.5 125.2 30.1 176.9 70.1 56.2 43.5 95 100.6 115.8 169.1 19.2 62.8 18.9 62.9-52.3 79.8z" fill="#9f9f9f"/></svg>