<svg id="Layer_1" xmlns="http://www.w3.org/2000/svg" viewBox="0 0 1000 1000"><style>.st0{fill:#a0a0a1}</style><path class="st0" d="M989.5 108.5v805.2h-162V108.5h162zm-117.6 41.7v727.9c27.4-1.2 50.5-2.2 71.8-3.2V150.1c-25.3.1-45.4.1-71.8.1z"/><path d="M17.5 756.5h157.4v162H17.5v-162z" fill="#90be4d"/><path class="st0" d="M629.6 273.6h153.9v639.5H629.6V273.6zM742.2 875V313.7H669V875h73.2zM581.9 435.8v478.1H426.3V435.8h155.6zM467.3 476v399.3h73.1V476h-73.1zm-89.5 441.2H225.3V599.3h152.5v317.9zM264.1 638v235.7H337V638h-72.9z"/></svg>