<svg id="Layer_1" xmlns="http://www.w3.org/2000/svg" viewBox="0 0 1000 1000"><path d="M472.6 11h56.8c1.4.3 2.8.6 4.3.8 20.2 2.6 40.6 4.1 60.6 8 115 22.6 210.8 78.8 284.7 169.6 96.1 118.1 129.9 253.5 103.2 403.3-15.5 86.8-53.2 163.6-111.5 229.6-87.4 99.1-197.2 154.9-329 166.9-49.1 4.5-97.9 1.2-146-9.7C278.4 953 183 891.7 110.1 796.2c-54.9-72-86.7-153.5-96.3-243.5-1.1-10-1.9-20.1-2.8-30.1v-44.1c.3-1.6.7-3.2.8-4.8 1.9-35.8 7.4-71.1 17.5-105.5C67.7 237 146.6 137.8 265.7 70.9c56-31.5 116.3-50 180.2-57.1 8.8-1 17.8-1.9 26.7-2.8zM700 500.7c0 .1 0 .1 0 0 55.5.1 111.1.1 166.6 0 3.4 0 6.9-.3 10.2-.8 11.1-1.9 18.7-11.1 17.7-21.2-3.5-35.3-9.8-70.1-20.3-104-26.3-84.6-74.4-153.3-149.2-202.1-49.2-32.1-103.3-51.7-161.1-61.6-11.9-2-23.9-3.6-35.9-3.9-12.8-.3-21.9 7.5-25.3 19.9-1.1 4-1.6 8.3-1.7 12.5v335.7c.4 11.9 7.3 20.9 18.9 23.8 4.5 1.1 9.3 1.7 14 1.7 55.4.1 110.8 0 166.1 0z" fill="#e71932"/></svg>