<svg id="Layer_1" xmlns="http://www.w3.org/2000/svg" viewBox="0 0 1000 1000"><style>.st0{fill:#9d9d9d}</style><path class="st0" d="M624.9 22c-4 14.2-8.9 28.1-11.9 42.5-3.5 16.8 1.4 23.7 18.2 25.6 24 2.8 39.7 17.1 52.1 35.9 2.8 4.3 5.9 11.5 4.2 15.1-6.6 13.4 1.5 24.1 3.8 36.1 8.1 41.2 15.3 82.5 22.6 123.9 1.5 8.5 1.7 17.2 2.6 26.8 9.8-2.5 18-4.6 26-6.6v127.4c-1.7.8-3.3 1.6-5 2.4-6.8-5.4-13.6-10.7-21.3-16.8-5.3 26-9.7 52-16 77.6-14.2 57.3-35.7 111.7-73.3 158-12 14.7-26 28.3-41.2 39.7-50.5 37.8-113.9 37.3-165.1.3-31.3-22.6-53.7-52.8-71.9-86.3-30.4-56-46.8-116.5-55.8-179.2-.4-3.1-.9-6.2-1.6-11.1-8.1 6.5-14.9 12-21.7 17.5-1.7-.4-3.3-.9-5-1.3V321.9c6.2 1.4 14.4 3.4 24.4 5.7 1.1-5.5 3-11 3.2-16.6 1.3-32.8 1.6-65.7 3.4-98.4.6-11.2 3.2-23 7.9-33.1 8.6-18.7 19.2-36.5 29.2-54.6 1.3-2.3 3.1-5.1 5.3-6.1 24.9-10.7 40.6-33 61.3-48.2 14.9-10.9 37.6-13.5 57.2-15.1 56.5-4.5 111.1-16.6 165-33.4 1.2-.1 2.3-.1 3.4-.1z"/><path class="st0" d="M10.3 978.4c3.7-4.5 7.9-8.7 11.1-13.5 34.8-52.4 69.1-105.1 104.4-157.2 4.6-6.9 13.2-13.4 21.1-15.4 73.1-18.4 146.5-35.8 219.8-53.7 9.3-2.3 15.9-1.3 23 6.2 16.9 17.9 32.2 41.5 53.3 50 21.7 8.8 49.8.2 74.6 3.1 34 3.9 60.8-5.5 80.3-33.8 18.7-27.2 41.1-30.3 72.6-20.3 61.4 19.4 124.5 33.3 186.7 50.3 8 2.2 16.7 8.2 21.5 15C915 861.2 950.3 913.9 986 966.3c3 4.3 6.9 8 10.3 12v3.3H565.4c-1.2-5.7-2.3-10.4-3.1-15.2-5.5-31.8-10.7-63.6-16.8-95.3-.9-4.5-6.2-11.5-9.7-11.6-23.4-1-46.8-.5-71-.5-7.9 41.6-15.6 81.7-23.4 122.6H10.2c.1-1 .1-2.1.1-3.2z"/></svg>