<?xml version="1.0" encoding="utf-8"?>
<!-- Generator: Adobe Illustrator 19.0.0, SVG Export Plug-In . SVG Version: 6.00 Build 0)  -->
<svg version="1.1" id="Layer_1" xmlns="http://www.w3.org/2000/svg" xmlns:xlink="http://www.w3.org/1999/xlink" x="0px" y="0px"
	 viewBox="0 0 1000 1000" style="enable-background:new 0 0 1000 1000;" xml:space="preserve">
<style type="text/css">
	.st0{fill:#A0A1A1;}
</style>
<g>
	<path class="st0" d="M471.8,17.9c19.9,0,39.7,0,59.6,0c1.2,0.4,2.4,1,3.6,1.2c24,3.5,48.5,5.4,72.1,10.7
		c282.3,62.8,446.7,358.8,351.1,631.7c-80.8,230.7-320.3,364.4-560,312.6c-191-41.3-340.3-196.8-372.8-388.7c-3-17.9-5-36-7.5-54
		c0-19.9,0-39.7,0-59.6c0.5-2.8,1.2-5.5,1.6-8.3c3.3-22.4,5.5-45.1,10.1-67.3C69.1,208.9,228.6,56.3,416.8,25.5
		C435,22.5,453.4,20.4,471.8,17.9z M452.6,259.4c0,49.1,0,95.5,0,142.5c-80.7,1-160.6,2-240.6,3.1c0,65.1,0,128.8,0,193.4
		c80.4,1,160.3,2,241.5,3.1c0,47.5,0,93.9,0,141.9c129.7-81,257.6-161,386.6-241.6C710.9,420.8,582.9,340.8,452.6,259.4z"/>
	<path d="M452.6,259.4c130.3,81.4,258.3,161.4,387.6,242.2c-129,80.6-257,160.6-386.6,241.6c0-48,0-94.4,0-141.9
		c-81.2-1-161.1-2-241.5-3.1c0-64.6,0-128.3,0-193.4c80-1,159.8-2,240.6-3.1C452.6,354.9,452.6,308.5,452.6,259.4z"/>
</g>
</svg>
