<?xml version="1.0" encoding="utf-8"?>
<!-- Generator: Adobe Illustrator 19.0.0, SVG Export Plug-In . SVG Version: 6.00 Build 0)  -->
<svg version="1.1" id="Layer_1" xmlns="http://www.w3.org/2000/svg" xmlns:xlink="http://www.w3.org/1999/xlink" x="0px" y="0px"
	 viewBox="0 0 1000 1000" style="enable-background:new 0 0 1000 1000;" xml:space="preserve">
<style type="text/css">
	.st0{fill:#A0A1A1;}
</style>
<g>
	<path class="st0" d="M11.7,529.4c0-18.5,0-37,0-55.5c0.5-2.7,1.2-5.4,1.4-8.1c5.2-73.4,25.4-142.6,62.6-206
		C154.1,126.4,269.8,45.5,422.4,18.3c17-3,34.3-4.5,51.5-6.6c18.5,0,37,0,55.5,0c2.5,0.5,4.9,1,7.4,1.4c23.5,3.4,47.3,5.4,70.5,10.4
		c264.3,56.3,433.6,324.2,372,588.1C906,925.7,555.6,1086.3,271.9,934C130.5,858,46.3,738.4,18.2,580
		C15.2,563.2,13.8,546.2,11.7,529.4z M208.2,599c196.2,0,391.5,0,586.9,0c0-65.3,0-129.9,0-195c-195.8,0-391.1,0-586.9,0
		C208.2,469.2,208.2,533.9,208.2,599z"/>
	<path d="M208.2,599c0-65.2,0-129.8,0-195c195.7,0,391.1,0,586.9,0c0,65.1,0,129.7,0,195C599.6,599,404.3,599,208.2,599z"/>
</g>
</svg>
