<?xml version="1.0" encoding="utf-8"?>
<!-- Generator: Adobe Illustrator 19.0.0, SVG Export Plug-In . SVG Version: 6.00 Build 0)  -->
<svg version="1.1" id="Layer_1" xmlns="http://www.w3.org/2000/svg" xmlns:xlink="http://www.w3.org/1999/xlink" x="0px" y="0px"
	 viewBox="0 0 1024 1024" style="enable-background:new 0 0 1024 1024;" xml:space="preserve">
<style type="text/css">
	.st0{fill:#90BE4D;}
</style>
<g>
	<path class="st0" d="M1016.4,513.1c0.6,275.8-224.4,502.2-499.9,502.7c-279.1,0.5-505.1-223-505.8-500.2
		C10.1,238.5,234.7,12.7,511.5,12C789.9,11.4,1015.8,235.4,1016.4,513.1z M437.1,648.8c-34.6-36-67.7-70.6-100.9-105.2
		c-30.2-31.5-31.2-31.5-61.1,1.1c-0.8,0.8-1.6,1.7-2.3,2.5c-9.8,10.4-10.4,19.1,0.7,30.5c49.9,51,99.3,102.5,148.1,154.6
		c10.4,11.1,19.1,11,28.8,1.6c12.3-11.9,23.5-24.9,35.7-36.9c68.5-67.1,137.2-134.1,205.7-201.1c41.2-40.3,82.8-80.2,123.2-121.4
		c6.5-6.6,12.1-19.8,10.2-28c-7.4-30.8-39-38.7-61.2-17.1c-64.1,62.7-128.1,125.4-192.2,188C527.2,560.9,482.7,604.3,437.1,648.8z"
		/>
</g>
</svg>
