<?xml version="1.0" encoding="utf-8"?>
<!-- Generator: Adobe Illustrator 19.0.0, SVG Export Plug-In . SVG Version: 6.00 Build 0)  -->
<svg version="1.1" id="Layer_1" xmlns="http://www.w3.org/2000/svg" xmlns:xlink="http://www.w3.org/1999/xlink" x="0px" y="0px"
	 viewBox="0 0 1000 1000" style="enable-background:new 0 0 1000 1000;" xml:space="preserve">
<style type="text/css">
	.st0{fill:#FFFFFF;}
</style>
<g>
	<path class="st0" d="M10,426.2c2.5-9.9,3.9-20.4,7.8-29.7c16.7-40,47-63.7,90.1-67.9c45.4-4.4,80.6,14.3,105.1,52.9
		c0.9,1.4,1.7,2.8,2.6,4.3c0.1,0.1,0.3,0.2,0.8,0.5c185.7-77.9,371.7-155.8,557.9-233.9c-3.1-17-2.7-33.6,2.5-49.7
		c14.4-44.4,45-70.3,91.2-77.7c1.1-0.2,2.2-0.6,3.3-0.9c6.7,0,13.3,0,20,0c6.5,1.3,13.1,2.3,19.5,4.1C960,41.5,993,87.7,990.3,138.9
		c-2.7,49.7-40.6,92-90,100.3c-11.4,1.9-11.3,1.9-14,13.2c-40.5,170-80.9,340.1-121.4,510.1c-0.3,1.3-0.5,2.6-0.9,4.4
		c1.8,0.8,3.6,1.6,5.4,2.3c45.6,18.1,73.5,64.6,67.9,113.3c-5.6,48.2-43.4,87.3-91.5,94.7c-69.9,10.8-131.4-46.7-125.2-117.1
		c0.6-6.8,2.1-13.5,3.9-20.1c1-3.7,0.3-5.5-2.7-7.8c-53.4-40.2-106.7-80.5-160-120.8C374.8,645.8,288,580.2,201.1,514.6
		c-1.2-0.9-2.4-1.7-3.9-2.8c-2.4,2.1-4.6,4.3-7.1,6.3c-33,26.8-69.9,34.1-109.6,19.1c-40.1-15.1-63.1-45.2-69.6-87.7
		c-0.2-1.1-0.6-2.2-0.9-3.3C10,439.5,10,432.8,10,426.2z M743.5,762c41.4-173.9,82.7-347.7,124.1-521.7c-41.6-7-70.6-29.7-87.7-67.8
		C594.3,250.3,409.1,328,223.7,405.7c8.6,32,4,61.8-13.3,89.7C351.8,602.3,493,708.9,634.2,815.6C660.1,775.9,696.4,758.2,743.5,762
		z"/>
</g>
</svg>
