<?xml version="1.0" encoding="utf-8"?>
<!-- Generator: Adobe Illustrator 19.0.0, SVG Export Plug-In . SVG Version: 6.00 Build 0)  -->
<svg version="1.1" id="Layer_1" xmlns="http://www.w3.org/2000/svg" xmlns:xlink="http://www.w3.org/1999/xlink" x="0px" y="0px"
	 viewBox="0 0 1224 620" style="enable-background:new 0 0 1224 620;" xml:space="preserve">
<style type="text/css">
	.st0{fill:#7BB845;}
</style>
<g>
	<path class="st0" d="M1058,621c-330,0-660,0-990,0c-1.4-0.6-2.7-1.4-4.1-1.7c-26-5.7-44.3-21.2-55.8-44.8C5,568.1,3.3,560.9,1,554
		C1,392.3,1,230.7,1,69c0.4-1.6,0.9-3.1,1.3-4.7C8.3,37.1,24.2,17.9,49.6,6.9C55.5,4.4,61.9,2.9,68,1c330,0,660,0,990,0
		c5,1.7,10.2,3,14.9,5.1c32.7,14.9,51.8,39.3,52,76.3c0.2,32.6,0,65.3,0.1,97.9c0,6.7,0,6.7,6.9,6.7c18.5,0,37-0.2,55.5,0.1
		c13.8,0.2,25.1,5.8,31.9,18c3.1,5.6,3.9,12.5,5.8,18.8c0,57.7,0,115.3,0,173c-0.2,0.6-0.4,1.2-0.5,1.9c-2.1,19.5-18,34.1-40.8,33.5
		c-17.5-0.5-35,0.1-52.4-0.2c-5.1-0.1-6.5,1.5-6.4,6.6c0.2,35.1,0.2,70.2,0,105.4c-0.2,36.6-29.9,65.4-56.1,73.3
		C1065.1,618.4,1061.6,619.8,1058,621z M562.5,74.6c-159.3,0-318.6,0-478,0c-9.7,0-10.3,0.7-10.3,10.2c0,150.8,0,301.6,0,452.5
		c0,9.5,0.6,10.2,10.3,10.2c318.6,0,637.3,0,955.9,0c9.2,0,11.8-2.6,11.8-11.9c0-149.7,0-299.3,0-449c0-1.2,0.1-2.3,0-3.5
		c-0.3-4.4-3.4-7.8-7.8-8.3c-1.8-0.2-3.7-0.1-5.5-0.1C880.2,74.6,721.3,74.6,562.5,74.6z"/>
	<path class="st0" d="M436.7,310.5c0-57.8,0-115.6,0-173.4c0-6.7,0-6.8,6.5-6.8c79.3,0,158.6,0,237.9-0.1c4.5,0,5.6,1.4,5.6,5.7
		c-0.1,116.8-0.1,233.6,0,350.4c0,4.4-1.3,5.6-5.7,5.6c-79.3-0.1-158.6-0.1-237.9,0c-5,0-6.5-1.3-6.5-6.4
		C436.8,427.1,436.7,368.8,436.7,310.5z"/>
	<path class="st0" d="M136.4,310.8c0-58,0-116,0-174c0-6.6,0-6.6,6.5-6.6c78,0,156,0,233.9,0c7,0,7,0,7,6.8c0,116,0,231.9,0,347.9
		c0,6.8,0,6.8-7,6.8c-78.1,0-156.3,0-234.4,0.1c-4.9,0-6.2-1.4-6.1-6.2C136.5,427.4,136.4,369.1,136.4,310.8z"/>
	<path class="st0" d="M990.5,311c0,58,0,116,0,173.9c0,6.9,0,6.9-6.7,6.9c-77.6,0-155.3,0-232.9,0c-7,0-7,0-7-6.8
		c0-116,0-231.9,0-347.9c0-6.9,0-6.9,6.9-6.9c77.8,0,155.6,0.1,233.4-0.1c5.1,0,6.4,1.4,6.4,6.4C990.4,194.7,990.5,252.8,990.5,311z
		"/>
</g>
</svg>
