<?xml version="1.0" encoding="utf-8"?>
<!-- Generator: Adobe Illustrator 19.0.0, SVG Export Plug-In . SVG Version: 6.00 Build 0)  -->
<svg version="1.1" id="Layer_1" xmlns="http://www.w3.org/2000/svg" xmlns:xlink="http://www.w3.org/1999/xlink" x="0px" y="0px"
	 viewBox="0 0 1000 1000" style="enable-background:new 0 0 1000 1000;" xml:space="preserve">
<style type="text/css">
	.st0{fill:#FFFFFF;}
	.st1{display:none;fill:#FFFFFF;}
</style>
<g>
	<path class="st0" d="M982.6,502c0.4,264.7-214.7,480.1-480,480.6c-264.6,0.6-480-215-480.1-480.3C22.4,237.9,237,22.7,500.8,22.5
		C767.2,22.4,982.2,236.4,982.6,502z M610.3,733.3c-4,1.3-6.6,2.1-9.2,3c-16.2,5.7-32.8,8.6-50.1,6.6c-19.8-2.2-28.8-11.5-29.4-31.2
		c-0.2-7.2-0.4-14.7,1.3-21.6c9.7-39,19.4-78.1,30.2-116.8c8.5-30.7,17.5-61.2,16.2-93.5c-1.2-29.9-15.7-51.3-42.6-63.9
		c-21.2-9.9-43.8-11.2-66.6-8.6c-31.3,3.6-60,15.9-89,27.2c-2.1,0.8-4.9,2.6-5.4,4.5c-2.7,9.5-4.7,19.3-7.3,30.1
		c3.3-0.9,5-1.2,6.7-1.8c18.9-6.8,38.1-10.8,58.3-6.4c11.9,2.5,19.9,9.3,20.7,21.3c0.9,12.7,1.6,26.1-1.2,38.3
		c-7.7,33.4-17,66.3-26.1,99.4c-8.8,31.8-19.2,63.3-19.5,96.8c-0.3,33.7,17.8,59.9,49.4,72c22.4,8.6,46.1,10.8,68.8,5.5
		c28.3-6.5,55.6-17.5,83.2-26.7c1.7-0.6,3.8-2.6,4.3-4.3C605.5,753.7,607.7,744.1,610.3,733.3z M545.9,206.9
		c-4.1,0.3-8.5,0.5-12.9,1c-26.6,3.1-51.5,24.1-58.9,49.4c-7.7,26.6,0.9,52.8,23.3,70.7c30.8,24.6,77.1,21.3,103.5-7.9
		c18.7-20.7,23-44.9,11.8-70.1C600.3,221.7,576.9,208.3,545.9,206.9z"/>
	<path class="st1" d="M610.3,733.3c-2.6,10.8-4.8,20.4-7.4,30c-0.5,1.7-2.5,3.7-4.3,4.3c-27.7,9.2-55,20.1-83.2,26.7
		c-22.7,5.2-46.4,3.1-68.8-5.5c-31.6-12.1-49.7-38.3-49.4-72c0.3-33.5,10.7-65,19.5-96.8c9.1-33,18.5-66,26.1-99.4
		c2.8-12.2,2.1-25.6,1.2-38.3c-0.8-12-8.9-18.7-20.7-21.3c-20.2-4.3-39.4-0.4-58.3,6.4c-1.7,0.6-3.4,0.9-6.7,1.8
		c2.5-10.8,4.6-20.6,7.3-30.1c0.5-1.9,3.3-3.7,5.4-4.5c29-11.3,57.8-23.6,89-27.2c22.8-2.7,45.4-1.3,66.6,8.6
		c26.9,12.6,41.4,34,42.6,63.9c1.3,32.3-7.7,62.8-16.2,93.5C542.4,612,532.6,651,522.9,690c-1.7,6.9-1.5,14.4-1.3,21.6
		c0.6,19.7,9.6,29,29.4,31.2c17.3,2,33.9-1,50.1-6.6C603.7,735.4,606.4,734.6,610.3,733.3z"/>
	<path class="st1" d="M545.9,206.9c31,1.3,54.5,14.8,66.9,43c11.2,25.2,6.9,49.4-11.8,70.1c-26.5,29.2-72.8,32.5-103.5,7.9
		c-22.4-17.9-31.1-44-23.3-70.7c7.3-25.3,32.2-46.2,58.9-49.4C537.4,207.4,541.8,207.2,545.9,206.9z"/>
</g>
</svg>
