<?xml version="1.0" encoding="utf-8"?>
<!-- Generator: Adobe Illustrator 19.0.0, SVG Export Plug-In . SVG Version: 6.00 Build 0)  -->
<svg version="1.1" id="Layer_1" xmlns="http://www.w3.org/2000/svg" xmlns:xlink="http://www.w3.org/1999/xlink" x="0px" y="0px"
	 viewBox="0 0 800 1000" style="enable-background:new 0 0 800 1000;" xml:space="preserve">
<style type="text/css">
	.st0{fill:#8B8B8B;}
</style>
<g>
	<path class="st0" d="M417.1,65.7c7.1,2.1,14.3,3.9,21.3,6.4c53.2,18.7,83.6,75.6,69.4,129.5c-14.9,56.6-68.3,90.4-126.9,80.2
		c-52.8-9.1-92.2-61.5-87.6-116.3c4.1-48,40.6-88.5,88-97.7c2-0.4,3.9-1.4,5.8-2.1C397.1,65.7,407.1,65.7,417.1,65.7z"/>
	<path class="st0" d="M387.2,938.6c-4.7-1.4-9.4-2.8-14.1-4.1c-51.4-14.3-86.2-65.5-79.5-117.1c7.1-54.5,52.1-96,105.3-97
		c54.8-1.1,101.4,37.1,110.6,90.6c9.9,57.9-27.8,113.2-85.4,125.3c-2.4,0.5-4.6,1.4-7,2.2C407.1,938.6,397.1,938.6,387.2,938.6z"/>
	<path class="st0" d="M511.2,502.1c0,60.2-49.4,109.3-109.6,109.1C342,611.1,293,561.9,293,502.2c0-59.7,49.2-109.2,108.5-109.1
		C462.1,393.1,511.2,442,511.2,502.1z"/>
</g>
</svg>
