<?xml version="1.0" encoding="utf-8"?>
<!-- Generator: Adobe Illustrator 19.0.0, SVG Export Plug-In . SVG Version: 6.00 Build 0)  -->
<svg version="1.1" id="Layer_1" xmlns="http://www.w3.org/2000/svg" xmlns:xlink="http://www.w3.org/1999/xlink" x="0px" y="0px"
	 viewBox="0 0 1000 1000" style="enable-background:new 0 0 1000 1000;" xml:space="preserve">
<style type="text/css">
	.st0{fill:#9D9D9D;}
</style>
<g>
	<path class="st0" d="M745.8,441.8c28.9,1.4,53.3,9.2,74.4,25.9c28.5,22.5,46.5,51.7,46.9,88.2c1,107.7,1.8,215.5-0.1,323.1
		c-1.1,63.4-55.1,113.9-118.6,114.1c-165.5,0.6-331,0.7-496.4,0c-64.3-0.3-117.9-54.2-118.3-118.3c-0.7-104.9-0.7-209.9,0-314.8
		c0.4-58.5,48.1-110.6,106-116.1c14.5-1.4,16.6-6.9,16.5-19.5c-0.5-59.4-1.3-118.9,0.4-178.2C259.5,139,338.9,44.1,443.2,20.1
		c155.7-35.7,300.7,78.3,302.4,238.3c0.6,54.4,0.1,108.8,0.1,163.3C745.8,427.7,745.8,433.7,745.8,441.8z M622.2,441.4
		c0.4-3.8,1-6.5,1-9.2c0-58.8,0.3-117.7-0.3-176.5c-0.1-10.9-2.2-22.2-5.4-32.6c-17.8-58.8-74.2-94.5-135.1-86.1
		c-59.6,8.2-103.5,59.5-104.4,123.4c-0.8,54.9,0.3,109.9-0.5,164.8c-0.2,14.6,5.1,17.3,18.2,17.2c69.9-0.6,139.8-0.2,209.8-0.3
		C610.9,442.2,616.3,441.7,622.2,441.4z M623.1,692.8c0-59.1-35.8-107.7-86.7-122.7c-53.6-15.8-109.8,5.1-139.4,51.9
		c-28.9,45.7-25.1,106.3,12.1,145c16.9,17.6,31.3,32.4,34.1,59.6c3,29.8,34.1,46.9,65.2,43.7c27.9-2.8,51.4-25.8,52.5-55.6
		c0.6-16.3,6.7-25.5,18.9-35.3C608.6,756.1,622,724.5,623.1,692.8z"/>
</g>
</svg>
