<?xml version="1.0" encoding="utf-8"?>
<!-- Generator: Adobe Illustrator 19.0.0, SVG Export Plug-In . SVG Version: 6.00 Build 0)  -->
<svg version="1.1" id="Layer_1" xmlns="http://www.w3.org/2000/svg" xmlns:xlink="http://www.w3.org/1999/xlink" x="0px" y="0px"
	 viewBox="0 0 1000 1000" style="enable-background:new 0 0 1000 1000;" xml:space="preserve">
<style type="text/css">
	.st0{fill:#9F9F9F;}
</style>
<g>
	<path class="st0" d="M110.3,222.5c224.6,225.3,449.4,450.9,674.1,676.3c-119.4,108.9-385.7,129.2-572.3-24
		C-19,685-11.1,384.2,110.3,222.5z"/>
	<path class="st0" d="M508.5,96c5.9-20.9,11.1-39,16.1-56.7c161.3,4.9,408.2,169,460.3,446.6c-45.6,32.1-58,27.3-72.5-22.5
		c-55.9-192.2-182.2-312-375.7-361.5C528.9,99.9,521,98.6,508.5,96z"/>
	<path class="st0" d="M708.3,567.5c-24-146.2-107.9-231.9-253.5-259.6c1.6-9.8,2.8-18.9,4.8-27.9c2.1-9.5,4.9-18.7,8.3-31.5
		c67.7,1.5,125.2,30.1,176.9,70.1c56.2,43.5,95,100.6,115.8,169.1C779.8,550.5,779.5,550.6,708.3,567.5z"/>
</g>
</svg>
