<?xml version="1.0" encoding="utf-8"?>
<!-- Generator: Adobe Illustrator 19.0.0, SVG Export Plug-In . SVG Version: 6.00 Build 0)  -->
<svg version="1.1" id="Layer_1" xmlns="http://www.w3.org/2000/svg" xmlns:xlink="http://www.w3.org/1999/xlink" x="0px" y="0px"
	 viewBox="0 0 1000 1000" style="enable-background:new 0 0 1000 1000;" xml:space="preserve">
<style type="text/css">
	.st0{fill:#FFFFFF;}
</style>
<g>
	<path class="st0" d="M11.3,540c0-26.7,0-53.3,0-80c19-5.2,37.8-11.8,57.1-15.1c21.2-3.6,29.6-17.3,34.8-35.4
		c2-6.9,3.8-13.9,6.4-20.6c11.3-28.8,8.8-33.7-15.6-53.1c-13.1-10.4-27-23.3-32.8-38.2c-3.4-8.7,8-23.4,13.1-35.2
		c2.2-5.1,4.5-10.2,7.7-14.7c16.2-22.3,23-23.9,49-14.5c10.9,3.9,22.5,6.2,33.8,8.9c14,3.3,26.1,0.6,36.2-10.7
		c9.2-10.3,19.8-19.5,29.3-29.5c10.8-11.4,15.6-23.7,6.5-39.1c-5-8.5-7.8-18.4-11-27.8c-6-18-0.1-33,16.3-42.6
		c10-5.9,20.6-11,30.1-17.7c14.1-10,25.8-7,36.9,4.4c11.6,11.9,22.2,25.2,35.3,35.2c7.8,6,19.9,10,29.5,9
		c15.1-1.6,29.5-8.9,44.5-12.5c12.8-3,20.4-9.8,23.6-22.6c4.5-17.7,10.3-35.2,14.4-53c2-8.6,5.7-12.2,14.5-12
		c21.1,0.4,42.2,0.5,63.3,0.1c9.6-0.2,13.7,3.8,15.7,12.9c3.6,16.8,8.9,33.3,12.2,50.1c2.6,13.6,9,21.8,22.9,24.9
		c12.9,2.9,25.9,6.3,38,11.6c14.1,6.1,25.9,4.9,36.6-5.7c9.9-9.7,19.4-19.8,29.1-29.8c20.4-21.3,27.3-22,51.4-6
		c6.4,4.3,13.7,7.4,20.1,11.8c12.3,8.3,23.8,18,20.2,35c-2.8,12.9-6.4,26-11.8,37.9c-7,15.4-4.8,27.9,6.6,39.4
		c9.7,9.9,19.5,19.8,29.5,29.4c16.5,16,24.1,14.9,46.3,8.2c44.8-13.5,56.6-21.7,78.7,22.8c18.7,37.8,21.9,38.5-10.2,65.6
		c-24.8,20.9-42.7,40.5-22,73.8c2.8,4.5,2.8,10.6,4.4,15.9c5.3,17.9,16.3,27.8,36,28.6c12.1,0.5,24,4.4,36,6.5
		c12.8,2.3,18.7,8.7,17.5,22.7c-1.3,14.3-0.2,28.9-0.2,43.3c-0.1,29.9-1.6,31.2-31.1,34.1c-9.3,0.9-18.4,4.3-27.7,5.4
		c-19.9,2.2-27.7,16.5-34,32.5c-3.2,8.2-5.6,16.8-8.4,25.2c-9.1,26.8-7.3,32.3,15.9,48.7c37.7,26.7,40.4,36.8,20.7,76.9
		c-2.2,4.5-4.1,9.2-6.9,13.2c-15.3,21.8-23.9,23.9-49,14.9c-11.4-4.1-23.6-6.3-35.5-9.1c-13.5-3.1-24.9-0.2-34.5,10.7
		c-8.8,10-18.9,18.8-28.2,28.3c-11.8,12-18.2,24.6-7.6,41.5c5.2,8.3,7.9,18.3,11.1,27.8c5.7,17.2-0.1,31.7-16,41.2
		c-9.1,5.4-18.3,10.4-27.4,15.8c-21.1,12.5-28.8,11.3-45.9-7.1c-9.8-10.6-19.5-21.3-30-31.1c-9.2-8.5-19.6-14-33.3-8.5
		c-13.3,5.3-27.2,9.7-41.1,13.1c-12.9,3.1-20.2,10-23.3,22.8c-4.3,17.8-9,35.5-14.9,52.8c-1.6,4.7-8,10.9-12.4,11.1
		c-22.2,1.1-44.4,1-66.6-0.1c-4.7-0.2-11.5-5.9-13-10.5c-5.5-16.8-9.9-34.1-13.2-51.6c-2.5-13.7-8.6-21.8-22.7-25
		c-12.4-2.8-24.8-6.6-36.3-11.8c-15.2-6.9-28.1-4.8-39.6,6.5c-9.9,9.7-19.3,20-28.8,30c-18.6,19.5-26.8,20.5-48.9,6.1
		c-6.5-4.2-13.5-7.6-20-11.9c-13.5-8.9-25.6-19.2-21.3-37.7c3-12.9,6.9-25.8,12.2-37.9c6-13.5,4-25.3-5.2-35.5
		c-11.6-12.7-23.8-24.8-36.5-36.5c-9.6-8.8-20.9-11.6-34-7c-13,4.5-26.3,8.5-39.7,11.5c-20.1,4.5-31.5-1.4-40.8-19.7
		c-2-3.9-3.3-8.3-5.5-12.1c-20.7-35.4-20.6-36,9.1-64.4c1.6-1.5,3-3.4,4.8-4.6c25.7-16.9,37-37.2,18.9-66.9
		c-4.7-7.8-4.3-18.6-8.7-26.7c-3.7-6.9-9.9-14.8-16.7-17.2C57,552,34,546.5,11.3,540z M695.8,504.1c-0.8-105.6-90.1-191.9-195.2-192
		c-103.7-0.1-194.3,84.4-195.1,190.3c-0.8,104.2,88.5,192.2,195,192C606.1,694.3,692.8,610,695.8,504.1z"/>
</g>
</svg>
