<?xml version="1.0" encoding="utf-8"?>
<!-- Generator: Adobe Illustrator 19.0.0, SVG Export Plug-In . SVG Version: 6.00 Build 0)  -->
<svg version="1.1" id="Layer_1" xmlns="http://www.w3.org/2000/svg" xmlns:xlink="http://www.w3.org/1999/xlink" x="0px" y="0px"
	 viewBox="0 0 1000 1000" style="enable-background:new 0 0 1000 1000;" xml:space="preserve">
<style type="text/css">
	.st0{fill:#A0A0A1;}
	.st1{fill:#90BE4D;}
</style>
<g>
	<path class="st0" d="M987.5,108.5c0,266.8,0,533.6,0,805.2c-53.5,0-103.6,0-162,0c0-268.3,0-536.7,0-805.2
		C879.5,108.5,933.5,108.5,987.5,108.5z M869.6,151.6c0,241.8,0,481.1,0,722.4c26.1,0,49.3,0,73.1,0c0-243.2,0-482.5,0-722.4
		C916.6,151.6,894.9,151.6,869.6,151.6z"/>
	<path class="st1" d="M15.5,756.5c51,0,102,0,157.4,0c0,53.6,0,103.5,0,162c-52.2,0-104.8,0-157.4,0
		C15.5,864.5,15.5,810.5,15.5,756.5z"/>
	<path class="st1" d="M424.2,435.7c51.4,0,100,0,153.4,0c0,157.9,0,315.9,0,478.3c-49.4,0-99.5,0-153.4,0
		C424.2,754.9,424.2,596.9,424.2,435.7z"/>
	<path class="st0" d="M628.5,271.9c52.5,0,99.5,0,151.5,0c0,213.3,0,425.3,0,641.9c-48.9,0-99,0-151.5,0
		C628.5,699.6,628.5,486.1,628.5,271.9z M740.6,876.8c0-191,0-376.3,0-561c-27.1,0-50.3,0-72,0c0,189.8,0,374.9,0,561
		C693.9,876.8,714,876.8,740.6,876.8z"/>
	<path class="st1" d="M221,914.8c0-105.8,0-208.2,0-315.5c50.4,0,100.5,0,154.8,0c0,103.8,0,207.7,0,315.5
		C325.8,914.8,277.3,914.8,221,914.8z"/>
</g>
</svg>
