<?xml version="1.0" encoding="utf-8"?>
<!-- Generator: Adobe Illustrator 19.0.0, SVG Export Plug-In . SVG Version: 6.00 Build 0)  -->
<svg version="1.1" id="Layer_1" xmlns="http://www.w3.org/2000/svg" xmlns:xlink="http://www.w3.org/1999/xlink" x="0px" y="0px"
	 viewBox="0 0 1000 1000" style="enable-background:new 0 0 1000 1000;" xml:space="preserve">
<style type="text/css">
	.st0{fill:#A0A0A1;}
	.st1{fill:#90BE4D;}
</style>
<g>
	<path class="st0" d="M989.5,108.5c0,266.8,0,533.6,0,805.2c-53.5,0-103.6,0-162,0c0-268.3,0-536.7,0-805.2
		C881.5,108.5,935.5,108.5,989.5,108.5z M871.9,150.2c0,245.1,0,484.4,0,727.9c27.4-1.2,50.5-2.2,71.8-3.2c0-245.7,0-484.8,0-724.8
		C918.4,150.2,898.3,150.2,871.9,150.2z"/>
	<path class="st1" d="M17.5,756.5c51,0,102,0,157.4,0c0,53.6,0,103.5,0,162c-52.2,0-104.8,0-157.4,0
		C17.5,864.5,17.5,810.5,17.5,756.5z"/>
	<path class="st0" d="M629.6,273.6c53.3,0,101.9,0,153.9,0c0,213.4,0,423.7,0,639.5c-48.9,0-99,0-153.9,0
		C629.6,702.9,629.6,490.9,629.6,273.6z M742.2,875c0-190.2,0-375.5,0-561.3c-26.1,0-47.9,0-73.2,0c0,187.9,0,373.1,0,561.3
		C693.7,875,715.5,875,742.2,875z"/>
	<path class="st0" d="M581.9,435.8c0,160.9,0,317.2,0,478.1c-51.5,0-101.6,0-155.6,0c0-158.8,0-316.8,0-478.1
		C477.4,435.8,525.9,435.8,581.9,435.8z M467.3,476c0,136.2,0,267.5,0,399.3c26.1,0,47.8,0,73.1,0c0-133.8,0-265.1,0-399.3
		C515.8,476,494,476,467.3,476z"/>
	<path class="st0" d="M377.8,917.2c-53.2,0-100.2,0-152.5,0c0-104.8,0-208.9,0-317.9c48,0,98.1,0,152.5,0
		C377.8,703.1,377.8,807.1,377.8,917.2z M264.1,638c0,80.2,0,157.5,0,235.7c26.7,0,49.9,0,72.9,0c0-81.6,0-159,0-235.7
		C310.6,638,288.8,638,264.1,638z"/>
</g>
</svg>
