<?xml version="1.0" encoding="utf-8"?>
<!-- Generator: Adobe Illustrator 19.0.0, SVG Export Plug-In . SVG Version: 6.00 Build 0)  -->
<svg version="1.1" id="Layer_1" xmlns="http://www.w3.org/2000/svg" xmlns:xlink="http://www.w3.org/1999/xlink" x="0px" y="0px"
	 viewBox="0 0 1000 1000" style="enable-background:new 0 0 1000 1000;" xml:space="preserve">
<style type="text/css">
	.st0{fill:#A0A0A0;}
	.st1{fill:#90BE4D;}
</style>
<g>
	<path class="st0" d="M985.5,108.5c0,266.8,0,533.6,0,805.2c-53.5,0-103.6,0-162,0c0-268.3,0-536.7,0-805.2
		C877.5,108.5,931.5,108.5,985.5,108.5z M940.9,874.7c0-243.3,0-482.5,0-725.9c-27.5,1.3-50.7,2.4-73.9,3.4c0,244.2,0,481.7,0,722.5
		C891.7,874.7,913.4,874.7,940.9,874.7z"/>
	<path class="st1" d="M13.5,756.5c51,0,102,0,157.4,0c0,53.6,0,103.5,0,162c-52.2,0-104.8,0-157.4,0
		C13.5,864.5,13.5,810.5,13.5,756.5z"/>
	<path class="st1" d="M778.9,917.3c-53.5,0-100.5,0-152.7,0c0-213.1,0-425.1,0-641.9c48.3,0,98.4,0,152.7,0
		C778.9,487.3,778.9,699.3,778.9,917.3z"/>
	<path class="st1" d="M575,915.9c-50.8,0-99.3,0-152.2,0c0-159.7,0-317.6,0-479.5c49.5,0,98,0,152.2,0
		C575,592.4,575,750.3,575,915.9z"/>
	<path class="st1" d="M372.6,916c-51.2,0-99.8,0-152.5,0c0-106.1,0-210.1,0-317.8c49.9,0,98.5,0,152.5,0
		C372.6,700.5,372.6,804.6,372.6,916z"/>
</g>
</svg>
