<?xml version="1.0" encoding="utf-8"?>
<!-- Generator: Adobe Illustrator 19.0.0, SVG Export Plug-In . SVG Version: 6.00 Build 0)  -->
<svg version="1.1" id="Layer_1" xmlns="http://www.w3.org/2000/svg" xmlns:xlink="http://www.w3.org/1999/xlink" x="0px" y="0px"
	 viewBox="0 0 1000 1000" style="enable-background:new 0 0 1000 1000;" xml:space="preserve">
<style type="text/css">
	.st0{fill:#A0A0A1;}
</style>
<g>
	<path class="st0" d="M993.5,108.5c0,266.8,0,533.6,0,805.2c-53.5,0-103.6,0-162,0c0-268.3,0-536.7,0-805.2
		C885.5,108.5,939.5,108.5,993.5,108.5z M948.5,875.2c0-244.8,0-484.1,0-723.3c-26.3,0-48,0-73.1,0c0,242.1,0,481.3,0,723.3
		C900.6,875.2,922.4,875.2,948.5,875.2z"/>
	<path class="st0" d="M21.5,756.5c51,0,102,0,157.4,0c0,53.6,0,103.5,0,162c-52.2,0-104.8,0-157.4,0
		C21.5,864.5,21.5,810.5,21.5,756.5z M141.9,802.3c-25.6,0-50.4,0-75.4,0c0,25.9,0,49.2,0,76c28-1.2,51.4-2.3,75.4-3.3
		C141.9,847.7,141.9,827.6,141.9,802.3z"/>
	<path class="st0" d="M787.7,915.7c-52.6,0-101.2,0-154.2,0c0-213.2,0-425.1,0-641.1c50.7,0,100.8,0,154.2,0
		C787.7,487.3,787.7,697.6,787.7,915.7z M673,313.6c0,187.8,0,373.1,0,560.4c26.2,0,49.3,0,73.1,0c0-189.2,0-374.5,0-560.4
		C720.1,313.6,698.3,313.6,673,313.6z"/>
	<path class="st0" d="M583.8,915.5c-53.3,0-101.8,0-153.8,0c0-159.3,0-315.7,0-477.5c48.8,0,98.9,0,153.8,0
		C583.8,594,583.8,752,583.8,915.5z M471.3,476c0,136.4,0,267.7,0,399.3c26.2,0,47.9,0,73.1,0c0-133.9,0-265.2,0-399.3
		C519.6,476,497.9,476,471.3,476z"/>
	<path class="st0" d="M226.6,915.2c0-106.9,0-209.3,0-316.2c51.5,0,101.5,0,155.5,0c0,104.9,0,208.9,0,316.2
		C331.1,915.2,282.6,915.2,226.6,915.2z M268.6,638.3c0,81.4,0,158.7,0,240c27.6-1.3,50.7-2.4,73.8-3.5c0-82.3,0-157.9,0-236.5
		C317.8,638.3,296.1,638.3,268.6,638.3z"/>
</g>
</svg>
