<?xml version="1.0" encoding="utf-8"?>
<!-- Generator: Adobe Illustrator 19.0.0, SVG Export Plug-In . SVG Version: 6.00 Build 0)  -->
<svg version="1.1" id="Layer_1" xmlns="http://www.w3.org/2000/svg" xmlns:xlink="http://www.w3.org/1999/xlink" x="0px" y="0px"
	 viewBox="0 0 1000 1000" style="enable-background:new 0 0 1000 1000;" xml:space="preserve">
<style type="text/css">
	.st0{fill:#A0A0A1;}
	.st1{fill:#90BE4D;}
</style>
<g>
	<path class="st0" d="M989.5,108.5c0,266.8,0,533.6,0,805.2c-53.5,0-103.6,0-162,0c0-268.3,0-536.7,0-805.2
		C881.5,108.5,935.5,108.5,989.5,108.5z M945.1,876.8c0-245,0-484.3,0-723c-27.2,0-50.3,0-71.9,0c0,243.8,0,482.9,0,723
		C898.4,876.8,918.5,876.8,945.1,876.8z"/>
	<path class="st1" d="M17.5,756.5c51,0,102,0,157.4,0c0,53.6,0,103.5,0,162c-52.2,0-104.8,0-157.4,0
		C17.5,864.5,17.5,810.5,17.5,756.5z"/>
	<path class="st0" d="M629.7,273.5c53,0,101.6,0,153.7,0c0,213.2,0,423.6,0,639.5c-48.5,0-98.7,0-153.7,0
		C629.7,703.1,629.7,491.2,629.7,273.5z M741.7,875.5c0-191.8,0-377,0-561.3c-26.5,0-48.3,0-72.5,0c0,188.4,0,373.7,0,561.3
		C694.6,875.5,716.4,875.5,741.7,875.5z"/>
	<path class="st1" d="M378.6,915.7c-52.5,0-101,0-154.1,0c0-105,0-209,0-317.1c50.5,0,100.6,0,154.1,0
		C378.6,703.1,378.6,805.5,378.6,915.7z"/>
	<path class="st0" d="M426.4,433.9c54.1,0,101.1,0,153.1,0c0,159.3,0,317.3,0,479.9c-48.9,0-99,0-153.1,0
		C426.4,755.3,426.4,597.3,426.4,433.9z M539.6,875.1c0-136.5,0-267.8,0-399.3c-26.2,0-47.9,0-73.1,0c0,133.9,0,265.2,0,399.3
		C491.4,875.1,513.2,875.1,539.6,875.1z"/>
</g>
</svg>
