<?xml version="1.0" encoding="utf-8"?>
<!-- Generator: Adobe Illustrator 19.0.0, SVG Export Plug-In . SVG Version: 6.00 Build 0)  -->
<svg version="1.1" id="Layer_1" xmlns="http://www.w3.org/2000/svg" xmlns:xlink="http://www.w3.org/1999/xlink" x="0px" y="0px"
	 viewBox="0 0 1000 1000" style="enable-background:new 0 0 1000 1000;" xml:space="preserve">
<style type="text/css">
	.st0{fill:#90BE4D;}
</style>
<g>
	<path class="st0" d="M987.5,108.5c0,266.8,0,533.6,0,805.2c-53.5,0-103.6,0-162,0c0-268.3,0-536.7,0-805.2
		C879.5,108.5,933.5,108.5,987.5,108.5z"/>
	<path class="st0" d="M15.5,756.5c51,0,102,0,157.4,0c0,53.6,0,103.5,0,162c-52.2,0-104.8,0-157.4,0
		C15.5,864.5,15.5,810.5,15.5,756.5z"/>
	<path class="st0" d="M780.9,917.3c-53.5,0-100.5,0-152.7,0c0-213.1,0-425.1,0-641.9c48.3,0,98.4,0,152.7,0
		C780.9,487.3,780.9,699.3,780.9,917.3z"/>
	<path class="st0" d="M425.1,435.6c53.4,0,101.9,0,153.9,0c0,159.4,0,315.7,0,477.5c-48.9,0-98.9,0-153.9,0
		C425.1,756.9,425.1,598.9,425.1,435.6z"/>
	<path class="st0" d="M376.6,915.7c-52.5,0-101,0-154.1,0c0-105,0-209,0-317.1c50.5,0,100.6,0,154.1,0
		C376.6,703.1,376.6,805.5,376.6,915.7z"/>
</g>
</svg>
