<?xml version="1.0" encoding="utf-8"?>
<!-- Generator: Adobe Illustrator 19.0.0, SVG Export Plug-In . SVG Version: 6.00 Build 0)  -->
<svg version="1.1" id="Layer_1" xmlns="http://www.w3.org/2000/svg" xmlns:xlink="http://www.w3.org/1999/xlink" x="0px" y="0px"
	 viewBox="0 0 1000 1000" style="enable-background:new 0 0 1000 1000;" xml:space="preserve">
<style type="text/css">
	.st0{fill:#E71932;}
</style>
<g>
	<path class="st0" d="M472.6,11c18.9,0,37.9,0,56.8,0c1.4,0.3,2.8,0.6,4.3,0.8c20.2,2.6,40.6,4.1,60.6,8
		c115,22.6,210.8,78.8,284.7,169.6c96.1,118.1,129.9,253.5,103.2,403.3c-15.5,86.8-53.2,163.6-111.5,229.6
		c-87.4,99.1-197.2,154.9-329,166.9c-49.1,4.5-97.9,1.2-146-9.7C278.4,953,183,891.7,110.1,796.2c-54.9-72-86.7-153.5-96.3-243.5
		c-1.1-10-1.9-20.1-2.8-30.1c0-14.7,0-29.4,0-44.1c0.3-1.6,0.7-3.2,0.8-4.8c1.9-35.8,7.4-71.1,17.5-105.5
		C67.7,237,146.6,137.8,265.7,70.9c56-31.5,116.3-50,180.2-57.1C454.7,12.8,463.7,11.9,472.6,11z M700,500.7
		C700,500.8,700,500.8,700,500.7c55.5,0.1,111.1,0.1,166.6,0c3.4,0,6.9-0.3,10.2-0.8c11.1-1.9,18.7-11.1,17.7-21.2
		c-3.5-35.3-9.8-70.1-20.3-104c-26.3-84.6-74.4-153.3-149.2-202.1c-49.2-32.1-103.3-51.7-161.1-61.6c-11.9-2-23.9-3.6-35.9-3.9
		c-12.8-0.3-21.9,7.5-25.3,19.9c-1.1,4-1.6,8.3-1.7,12.5C501,250.1,501,360.7,501,471.3c0,1.3,0,2.6,0,3.9
		c0.4,11.9,7.3,20.9,18.9,23.8c4.5,1.1,9.3,1.7,14,1.7C589.3,500.8,644.7,500.7,700,500.7z"/>
</g>
</svg>
