<?xml version="1.0" encoding="utf-8"?>
<!-- Generator: Adobe Illustrator 19.0.0, SVG Export Plug-In . SVG Version: 6.00 Build 0)  -->
<svg version="1.1" id="Layer_1" xmlns="http://www.w3.org/2000/svg" xmlns:xlink="http://www.w3.org/1999/xlink" x="0px" y="0px"
	 viewBox="0 0 1000 1000" style="enable-background:new 0 0 1000 1000;" xml:space="preserve">
<style type="text/css">
	.st0{fill:#FFFFFF;}
</style>
<g>
	<path class="st0" d="M993.8,503C994,774.4,775,993.7,503.6,993.7C232.1,993.8,13,775.1,12.8,503.6C12.6,232.3,231.7,13,503,12.9
		C774.6,12.9,993.6,231.6,993.8,503z M713.8,471.4c52.7,0,103.9,0,155.3,0C854.6,278,687.1,144.6,536.5,138.8c0,52,0,103.9,0,156.3
		c-21.9,0-42.2,0-64,0c0-53,0-105,0-157.1c-174.1,9.3-325.2,161.2-334.4,334.6c52.5,0,104.9,0,157.4,0c0,22.4,0,42.6,0,64.8
		c-53.4,0-105.7,0-158.1,0c17.8,194.4,182,324.1,335.4,331c0-51.4,0-102.8,0-154.6c22.2,0,42.4,0,64.4,0c0,52.3,0,103.6,0,155.1
		c184.5-14.6,322.3-172,331.1-332.7c-51.4,0-102.8,0-154.6,0C713.8,514.6,713.8,494.8,713.8,471.4z"/>
</g>
</svg>
