<?xml version="1.0" encoding="utf-8"?>
<!-- Generator: Adobe Illustrator 19.0.0, SVG Export Plug-In . SVG Version: 6.00 Build 0)  -->
<svg version="1.1" id="Layer_1" xmlns="http://www.w3.org/2000/svg" xmlns:xlink="http://www.w3.org/1999/xlink" x="0px" y="0px"
	 viewBox="0 0 1000 1000" style="enable-background:new 0 0 1000 1000;" xml:space="preserve">
<style type="text/css">
	.st0{fill:#9D9D9D;}
</style>
<g>
	<path class="st0" d="M624.9,22c-4,14.2-8.9,28.1-11.9,42.5c-3.5,16.8,1.4,23.7,18.2,25.6c24,2.8,39.7,17.1,52.1,35.9
		c2.8,4.3,5.9,11.5,4.2,15.1c-6.6,13.4,1.5,24.1,3.8,36.1c8.1,41.2,15.3,82.5,22.6,123.9c1.5,8.5,1.7,17.2,2.6,26.8
		c9.8-2.5,18-4.6,26-6.6c0,43.3,0,85.4,0,127.4c-1.7,0.8-3.3,1.6-5,2.4c-6.8-5.4-13.6-10.7-21.3-16.8c-5.3,26-9.7,52-16,77.6
		c-14.2,57.3-35.7,111.7-73.3,158c-12,14.7-26,28.3-41.2,39.7c-50.5,37.8-113.9,37.3-165.1,0.3c-31.3-22.6-53.7-52.8-71.9-86.3
		c-30.4-56-46.8-116.5-55.8-179.2c-0.4-3.1-0.9-6.2-1.6-11.1c-8.1,6.5-14.9,12-21.7,17.5c-1.7-0.4-3.3-0.9-5-1.3
		c0-42,0-83.9,0-127.6c6.2,1.4,14.4,3.4,24.4,5.7c1.1-5.5,3-11,3.2-16.6c1.3-32.8,1.6-65.7,3.4-98.4c0.6-11.2,3.2-23,7.9-33.1
		c8.6-18.7,19.2-36.5,29.2-54.6c1.3-2.3,3.1-5.1,5.3-6.1c24.9-10.7,40.6-33,61.3-48.2c14.9-10.9,37.6-13.5,57.2-15.1
		c56.5-4.5,111.1-16.6,165-33.4C622.7,22,623.8,22,624.9,22z"/>
	<path class="st0" d="M10.3,978.4c3.7-4.5,7.9-8.7,11.1-13.5c34.8-52.4,69.1-105.1,104.4-157.2c4.6-6.9,13.2-13.4,21.1-15.4
		c73.1-18.4,146.5-35.8,219.8-53.7c9.3-2.3,15.9-1.3,23,6.2c16.9,17.9,32.2,41.5,53.3,50c21.7,8.8,49.8,0.2,74.6,3.1
		c34,3.9,60.8-5.5,80.3-33.8c18.7-27.2,41.1-30.3,72.6-20.3c61.4,19.4,124.5,33.3,186.7,50.3c8,2.2,16.7,8.2,21.5,15
		c36.3,52.1,71.6,104.8,107.3,157.2c3,4.3,6.9,8,10.3,12c0,1.1,0,2.2,0,3.3c-143.3,0-286.7,0-430.9,0c-1.2-5.7-2.3-10.4-3.1-15.2
		c-5.5-31.8-10.7-63.6-16.8-95.3c-0.9-4.5-6.2-11.5-9.7-11.6c-23.4-1-46.8-0.5-71-0.5c-7.9,41.6-15.6,81.7-23.4,122.6
		c-144.5,0-287.9,0-431.2,0C10.3,980.6,10.3,979.5,10.3,978.4z"/>
</g>
</svg>
